<svg width="28" height="27" viewBox="0 0 28 27" fill="none" xmlns="http://www.w3.org/2000/svg">
<g clip-path="url(#clip0_1_192)">
<path d="M27.0448 3.7577C26.0841 4.2713 25.0493 4.60881 23.9712 4.75219C25.0826 3.95306 25.9406 2.67598 26.36 1.14986C25.3204 1.88735 24.1715 2.42361 22.9547 2.70285C21.995 1.41644 20.6184 0.606503 19.0853 0.588259C16.1409 0.553218 13.7199 3.46162 13.6768 7.08556C13.6707 7.59792 13.7104 8.09833 13.796 8.58058C9.36724 8.25286 5.46903 5.59428 2.88644 1.58907C2.418 2.55226 2.14058 3.68004 2.1263 4.87966C2.09923 7.15409 3.01447 9.17723 4.43218 10.369C3.55918 10.3272 2.74039 10.0175 2.02531 9.52158L2.02435 9.60278C1.9865 12.7832 3.79264 15.4605 6.22746 16.0895C5.77883 16.2341 5.30584 16.3097 4.81837 16.3039C4.47325 16.2998 4.14375 16.2521 3.81463 16.1731C4.46396 18.7868 6.41121 20.7098 8.74062 20.7937C6.89206 22.534 4.58483 23.5564 2.08202 23.5266C1.65061 23.5215 1.22949 23.4852 0.808898 23.4177C3.1525 25.3141 5.94199 26.4284 8.9525 26.4642C18.7608 26.5809 24.246 16.6412 24.3492 7.96852C24.3527 7.68114 24.3509 7.3999 24.3441 7.1186C25.3958 6.21265 26.3133 5.06749 27.0448 3.7577Z" fill="white"/>
</g>
<defs>
<clipPath id="clip0_1_192">
<rect width="26" height="26" fill="white" transform="translate(1.08327 0.371582) rotate(0.681818)"/>
</clipPath>
</defs>
</svg>
