<svg width="26" height="27" viewBox="0 0 26 27" fill="none" xmlns="http://www.w3.org/2000/svg">
<path d="M23.4244 19.4602C23.4051 21.0851 22.9401 22.3887 22.032 23.2685C21.1213 24.1495 19.869 24.6078 18.371 24.59L8.18717 24.4688C6.68918 24.451 5.4469 23.963 4.55872 23.0605C3.67238 22.1074 3.2361 20.7917 3.25544 19.1668L3.38333 8.42051C3.40204 6.84762 7.50339 1.81307 8.41217 0.880015C4.07293 0.830976 1.14353 3.83573 1.0893 8.39321L0.961426 19.1382C0.934602 21.3923 1.60974 23.3414 2.99062 24.7723C4.3226 26.1506 6.11083 26.8545 8.15849 26.8788L18.3423 27C20.4878 27.0256 22.2941 26.3125 23.6072 25.0176C24.9716 23.6714 25.6941 21.7402 25.7209 19.4862L25.8495 8.68787C25.8756 6.48712 25.1986 4.59133 23.9174 3.21359C22.6368 1.78255 20.796 1.02739 18.7013 1.00246L8.41589 0.880059L4.77827 4.61224C5.63815 3.73061 6.9412 3.27418 8.43919 3.29201L18.7221 3.41438C20.2201 3.43221 21.4624 3.91892 22.3499 4.87465C23.188 5.82719 23.6701 7.14342 23.652 8.66301L23.5235 19.4614L23.4244 19.4602ZM20.0067 8.77564C20.2001 8.78389 20.3932 8.7513 20.5746 8.67978C20.7559 8.60827 20.9218 8.4993 21.0624 8.35932C21.2029 8.21934 21.3154 8.05119 21.393 7.86484C21.4706 7.67849 21.5119 7.47773 21.5143 7.27443C21.5167 7.07113 21.4803 6.86944 21.4071 6.6813C21.3339 6.49315 21.2255 6.32238 21.0883 6.17909C20.9511 6.0358 20.7879 5.92292 20.6083 5.84711C20.4287 5.7713 20.2364 5.73412 20.0428 5.73776C19.6663 5.74484 19.3071 5.90569 19.0415 6.18617C18.7758 6.46664 18.6245 6.84466 18.6198 7.23998C18.6151 7.63531 18.7573 8.01682 19.0163 8.30354C19.2752 8.59025 19.6305 8.7596 20.0067 8.77564V8.77564ZM13.354 18.2391C12.2697 18.2211 11.2366 17.7542 10.4794 16.94C9.72229 16.1258 9.30236 15.0302 9.31102 13.8916C9.32946 12.7532 9.77534 11.6679 10.5517 10.8719C11.328 10.076 12.3719 9.63378 13.4563 9.64156C14.5405 9.65959 15.5736 10.1265 16.3308 10.9407C17.0879 11.7549 17.5079 12.8505 17.4992 13.9891C17.4804 15.1273 17.0344 16.2123 16.2581 17.0079C15.4819 17.8036 14.4381 18.2456 13.354 18.2378L13.354 18.2391ZM13.485 7.23153C9.99129 7.18995 7.06005 10.1427 7.01576 13.8643C7.00298 14.746 7.15629 15.6214 7.46687 16.4402C7.77746 17.2591 8.23919 18.0052 8.82554 18.6357C9.41188 19.2663 10.1113 19.7687 10.8835 20.1143C11.6557 20.4598 12.4855 20.6416 13.3253 20.6492C16.8697 20.6914 19.7496 17.6847 19.7932 14.0177C19.8369 10.3467 16.9786 7.27311 13.485 7.23153V7.23153Z" fill="white"/>
</svg>
