<svg width="131" height="43" viewBox="0 0 131 43" fill="none" xmlns="http://www.w3.org/2000/svg">
<g clip-path="url(#clip0_1_174)">
<path d="M94.8658 34.6314C91.6931 34.5937 89.2348 33.2573 87.6762 30.8576L87.6379 34.0774L81.0564 33.9991L81.4384 1.90234L88.0199 1.98067L87.8723 14.3808C89.4875 12.0198 91.9759 10.7414 95.1507 10.7791C101.078 10.8497 105.73 16.2274 105.651 22.8079C105.573 29.3895 100.794 34.701 94.8669 34.6305L94.8658 34.6314ZM93.5824 17.0169C90.3616 16.9786 87.8123 19.4214 87.7746 22.5952C87.7362 25.817 90.2272 28.2728 93.4469 28.3111C96.6227 28.3489 99.219 25.9066 99.2568 22.7319C99.294 19.6051 96.7571 17.0547 93.5824 17.0169Z" fill="#FCFCFA"/>
<path d="M128.97 11.6488L115.863 42.024L108.816 41.9402L113.175 32.5154L104.604 11.3589L111.699 11.4433L116.627 24.8999L121.876 11.5644L128.97 11.6488Z" fill="#FCFCFA"/>
<path d="M78.0176 33.9637L71.4361 33.8853L71.818 1.7876L78.3996 1.86592L78.0176 33.9637Z" fill="#FCFCFA"/>
<path d="M68.8172 33.8546L62.6097 33.7807L62.6436 30.9339C61.263 33.1577 59.1034 34.206 56.0696 34.1699C52.0089 34.1216 49.0102 31.0517 49.0557 27.224C49.113 22.4163 53.3907 19.945 59.8322 20.0217L62.772 20.0567L62.7781 19.5437C62.8026 17.4899 61.0502 15.7409 58.4364 15.7098C55.9626 15.6803 53.5197 17.0064 52.2399 18.5783L48.6917 14.7078C50.7296 12.1168 54.6726 10.2966 58.5003 10.3422C64.9888 10.4194 69.0506 14.25 68.985 19.7576L68.8172 33.8546ZM62.7241 24.1654L59.4563 24.1265C56.5625 24.0921 54.8251 24.9585 54.8046 26.6853C54.7879 28.0852 55.8967 29.0325 57.6706 29.0536C60.5644 29.0881 62.6886 27.1532 62.7158 24.8654L62.7241 24.1654Z" fill="#FCFCFA"/>
<path d="M46.7962 20.6146L46.6418 33.5907L40.0603 33.5123L40.2047 21.3762C40.2403 18.3894 38.4437 16.4069 35.7359 16.3747C32.9821 16.3419 31.1849 18.2816 31.1494 21.2684L31.0049 33.4046L24.4234 33.3262L24.8054 1.22852L31.3869 1.30684L31.2421 13.474C32.7151 11.2974 34.877 10.062 37.4928 10.0931C43.3724 10.1631 46.8734 14.127 46.7962 20.6146Z" fill="#FCFCFA"/>
<path d="M21.8399 33.0155C20.995 33.4254 19.6843 33.6428 18.4704 33.6284C13.1027 33.5645 9.36257 30.1118 9.43311 24.1842L9.70844 1.04883L16.29 1.12715L16.1807 10.3065L21.8283 10.3737L21.7539 16.6283L16.1063 16.5611L16.0185 23.9355C15.993 26.0834 17.6098 27.4557 19.5236 27.4785C20.1776 27.4863 21.0662 27.3578 21.5814 27.177L21.8399 33.0155Z" fill="#FCFCFA"/>
<path d="M8.29808 13.3399C8.29252 13.812 8.19404 14.2784 8.00826 14.7124C7.82248 15.1464 7.55303 15.5396 7.2153 15.8694C6.87757 16.1993 6.47818 16.4594 6.03991 16.635C5.60165 16.8105 5.13311 16.898 4.66104 16.8924C4.18897 16.8869 3.72262 16.7884 3.28861 16.6026C2.8546 16.4168 2.46143 16.1474 2.13155 15.8096C1.80168 15.4719 1.54155 15.0725 1.36603 14.6343C1.1905 14.196 1.10302 13.7275 1.10857 13.2554C1.11992 12.302 1.50953 11.3922 2.1917 10.7261C2.87387 10.0599 3.79271 9.69208 4.7461 9.70342C5.69948 9.71477 6.60931 10.1044 7.27544 10.7865C7.94156 11.4687 8.30941 12.3876 8.29806 13.3409L8.29808 13.3399Z" fill="#CCCC33"/>
</g>
<defs>
<clipPath id="clip0_1_174">
<rect width="129" height="41" fill="white" transform="translate(1.01794 0.282227) rotate(0.681818)"/>
</clipPath>
</defs>
</svg>
